<svg id="Layer_1" data-name="Layer 1" xmlns="http://www.w3.org/2000/svg" viewBox="0 0 560 560"><defs><style>.cls-1{fill:none;}.cls-2{fill:#333;}.cls-3{fill:#563d7c;}.cls-4{fill:#fff;}</style></defs><rect class="cls-1" width="560" height="560"/><circle class="cls-2" cx="280" cy="280" r="274.49"/><path class="cls-3" d="M480,414.35A66.87,66.87,0,0,1,413.33,481H146.67A66.87,66.87,0,0,1,80,414.35V147.68A66.86,66.86,0,0,1,146.67,81H413.33A66.86,66.86,0,0,1,480,147.68Z"/><path class="cls-4" d="M188.69,167.94h113.4q31.38,0,50.33,14.38c12.61,9.61,18.95,24.05,18.95,43.47q0,17.64-8.62,30.19c-5.76,8.37-14,14.9-24.71,19.48v.65q21.57,4.61,32.68,20.4c7.38,10.58,11.11,23.79,11.11,39.73a66.43,66.43,0,0,1-4.9,25.62,51.77,51.77,0,0,1-15.36,20.59c-7,5.75-15.88,10.33-26.8,13.73s-23.85,5.1-38.89,5.1H188.69Zm40.85,97.72h66.67c9.8,0,18-2.75,24.51-8.37s9.8-13.6,9.8-24.05c0-11.77-2.94-20.07-8.82-24.84s-14.38-7.19-25.49-7.19H229.54Zm0,102.28h72.22c12.42,0,22.1-3.2,28.89-9.67S341,342.71,341,331c0-11.57-3.4-20.39-10.33-26.67S314.18,295,301.76,295H229.54Z"/></svg>