<svg id="Layer_1" data-name="Layer 1" xmlns="http://www.w3.org/2000/svg" viewBox="0 0 560 562.03"><defs><style>.cls-1,.cls-3{fill:none;}.cls-1{opacity:0;}.cls-2{fill:#333;}.cls-4{fill:#5d87a1;}.cls-5{fill:#f8981d;}</style></defs><rect class="cls-1" width="560" height="560"/><circle class="cls-2" cx="280" cy="287.54" r="274.49"/><path class="cls-3" d="M30,82H530V482H30Z" transform="translate(0 5.51)"/><path class="cls-4" d="M183.05,405.09H169.52q-.72-39.57-4-74.4h-.12l-20.61,74.4h-10.3L114,330.69h-.12q-2.28,33.45-2.87,74.4H98.71q1.2-49.79,6-93.35h16.77L141,380.33h.12l19.65-68.59h16q5.28,51,6.23,93.35m58.71-68.88Q233.5,388,220,411.47q-10.55,18.09-23.12,18.09a20.22,20.22,0,0,1-8.27-2.33v-8.32a34.06,34.06,0,0,0,5.63.42,12.55,12.55,0,0,0,9.47-3.74A14.55,14.55,0,0,0,208,405.36q0-3.89-3.36-15.9l-14.85-53.25h13.3L213.72,376q3.59,13.58,3,19a293.86,293.86,0,0,0,12.23-58.77Z" transform="translate(0 5.51)"/><path class="cls-5" d="M421.94,405.09H383.49V311.74h12.94V393.6h25.51Zm-48.52,2.25-14.86-8.47a29.34,29.34,0,0,0,3.71-4.17q9.48-12.84,9.47-38,0-46.32-31.5-46.33-15.45,0-24.09,11.76Q306.68,335,306.69,360q0,24.62,8.38,36.08,7.67,10.38,23.13,10.38a32.49,32.49,0,0,0,10.59-1.64l19.36,13Zm-48.16-20.93q-4.9-9.12-4.91-29.31,0-35.25,18.57-35.27,9.7,0,14.25,8.43,4.9,9.14,4.92,29,0,35.55-18.57,35.55c-6.48,0-11.22-2.8-14.26-8.44m-24.21-7.2q0,11.88-7.54,19.5t-20.24,7.61q-11.86,0-23-8.72l3.47-8q9.58,5.54,17.37,5.53c4.87,0,8.68-1.25,11.44-3.72A13.43,13.43,0,0,0,287,381c0-5.54-3.35-10.28-9.49-14.25-5.67-3.59-17-11.11-17-11.11-6.14-5.17-9.22-10.71-9.22-19.86q0-11.34,6.89-18.32t17.79-7a33.46,33.46,0,0,1,20.48,6.92l-3.12,8a35.16,35.16,0,0,0-15.57-3.87c-4.14,0-7.34,1.15-9.57,3.46a12.37,12.37,0,0,0-3.63,8.86c0,5.52,3.42,10.32,9.74,14.37,5.74,3.59,17.36,11.24,17.36,11.24,6.3,5.16,9.45,10.65,9.45,19.72" transform="translate(0 5.51)"/><path class="cls-4" d="M438.18,280.47c-7.82-.23-13.88.68-19,3.16-1.47.68-3.8.68-4,2.82.79.91.88,2.37,1.57,3.62a25.49,25.49,0,0,0,5.08,6.87c2.05,1.81,4.1,3.6,6.26,5.18,3.8,2.72,8.11,4.3,11.81,7,2.16,1.57,4.3,3.61,6.46,5.3,1.07.91,1.75,2.37,3.12,2.93V317c-.69-1-.88-2.48-1.56-3.61L445,310.13a50.59,50.59,0,0,0-10.16-11.38c-3.13-2.49-10-5.87-11.24-10l-.2-.23a34.45,34.45,0,0,0,6.74-1.82c3.33-1,6.36-.79,9.77-1.8,1.57-.45,3.12-1,4.7-1.58v-1c-1.77-2-3-4.74-4.89-6.66a134.12,134.12,0,0,0-16.12-13.87c-3-2.26-6.94-3.71-10.17-5.64-1.17-.68-3.13-1-3.81-2.14-1.76-2.48-2.74-5.75-4-8.69-2.83-6.2-5.57-13.07-8-19.63-1.76-4.39-2.83-8.78-5-12.85-10.08-19.17-21-30.78-37.82-42.18-3.61-2.37-7.91-3.38-12.5-4.63l-7.33-.44c-1.57-.8-3.13-2.94-4.5-4-5.58-4.05-19.93-12.85-24-1.24-2.64,7.34,3.91,14.56,6.16,18.28,1.66,2.58,3.82,5.52,5,8.46.69,1.92.88,3.95,1.57,6,1.56,5,3,10.48,5.08,15.11a55.38,55.38,0,0,0,3.61,7c.79,1.25,2.15,1.81,2.45,3.84-1.36,2.25-1.47,5.64-2.25,8.46-3.52,12.74-2.14,28.53,2.84,37.9,1.56,2.82,5.28,9,10.25,6.64,4.41-2,3.43-8.45,4.7-14.09.29-1.36.1-2.25.68-3.15V255c1.37,3.16,2.74,6.2,4,9.36,3,5.52,8.31,11.28,12.71,15.1,2.34,2,4.2,5.53,7.13,6.78v-.34h-.19a12,12,0,0,0-2.25-2.25,53.77,53.77,0,0,1-5.08-6.76,152.25,152.25,0,0,1-10.94-20.53c-1.57-3.51-2.93-7.33-4.2-10.83-.59-1.35-.59-3.39-1.57-4.06-1.47,2.47-3.61,4.62-4.68,7.66-1.86,4.86-2.06,10.83-2.75,17l-.38.22c-3.12-.9-4.2-4.62-5.38-7.77-2.93-8-3.42-20.88-.88-30.12.68-2.37,3.62-9.81,2.45-12.06-.59-2.16-2.55-3.39-3.62-5.09a48.22,48.22,0,0,1-3.52-7.22c-2.34-6.31-3.52-13.3-6.05-19.61a63.59,63.59,0,0,0-4.88-8.7c-1.87-3-3.91-5.18-5.39-8.79-.48-1.24-1.17-3.27-.38-4.62a1.66,1.66,0,0,1,1.36-1.47c1.27-1.23,4.89.34,6.16,1a47.57,47.57,0,0,1,9.67,5.64c1.37,1.13,2.84,3.28,4.59,3.84h2.06c3.12.79,6.64.22,9.57,1.24a59.77,59.77,0,0,1,14.08,7.78c12.8,9.36,23.35,22.68,30.48,38.57,1.16,2.59,1.66,5,2.73,7.67,2.06,5.53,4.6,11.17,6.65,16.58S402,254,405,258.36c1.46,2.37,7.33,3.61,10,4.85,1.95,1,5,1.91,6.74,3.15,3.32,2.37,6.64,5.08,9.76,7.68,1.56,1.35,6.45,4.17,6.74,6.43m-99.68-98a13.24,13.24,0,0,0-4,.57v.23h.18c.79,1.8,2.16,3.05,3.13,4.62.79,1.81,1.47,3.6,2.25,5.41l.18-.23c1.38-1.12,2.07-2.93,2.07-5.64a23.6,23.6,0,0,1-1.18-2.36c-.58-1.13-1.85-1.69-2.64-2.6" transform="translate(0 5.51)"/><path class="cls-5" d="M447.49,405.07h2V393.63h-3L444,401.44l-2.69-7.81h-2.93v11.44h1.91v-8.7h.11l2.82,8.7h1.46l2.81-8.7v8.7Zm-16.31,0h2.14v-9.5h2.8v-1.94h-7.86v1.94h2.91v9.5Z" transform="translate(0 5.51)"/></svg>