<svg id="Layer_1" data-name="Layer 1" xmlns="http://www.w3.org/2000/svg" viewBox="0 0 560 560"><defs><style>.cls-1{fill:none;opacity:0;}.cls-2{fill:#333;}.cls-3{fill:#764abc;}</style></defs><rect class="cls-1" width="560" height="560"/><circle class="cls-2" cx="280" cy="285.51" r="274.49"/><path class="cls-3" d="M366.16,339.91a30.1,30.1,0,0,0-3.24-60.05h-1.08A30.1,30.1,0,0,0,332.63,311a30.63,30.63,0,0,0,8.66,19.83C322.9,366.72,294.77,393,252.59,415c-28.66,15-58.41,20.37-88.16,16.62-24.33-3.22-43.26-13.94-55.16-31.64-17.31-26.27-18.93-54.69-4.33-83.11,10.28-20.37,26.5-35.39,36.78-42.89-2.16-7-5.41-18.77-7-27.35C56.27,302.91,64.38,379.05,88.18,415c17.84,26.81,54.08,43.43,94.1,43.43a134,134,0,0,0,32.45-3.75C284,441.25,336.42,400.5,366.16,339.91Z" transform="translate(0 5.51)"/><path class="cls-3" d="M461.35,273.42c-41.1-47.72-101.68-74-170.9-74h-8.66a29.74,29.74,0,0,0-26.5-16.09h-1.08a30,30,0,0,0,1.08,60.06h1.09a30.48,30.48,0,0,0,26.5-18.24h9.73c41.1,0,80,11.8,115.2,34.86,27,17.69,46.51,40.75,57.33,68.63,9.19,22.52,8.65,44.5-1.09,63.27-15.14,28.42-40.56,44-74.09,44-21.63,0-42.18-6.44-53-11.26-5.95,5.36-16.77,13.94-24.34,19.3,23.26,10.73,47.05,16.62,69.77,16.62,51.92,0,90.32-28.42,104.92-56.83C503,372.62,501.91,319,461.35,273.42Z" transform="translate(0 5.51)"/><path class="cls-3" d="M186.61,349a30.26,30.26,0,0,0,30.28,29H218a30,30,0,0,0-1.08-60.05h-1.09a9.35,9.35,0,0,0-3.78.53c-22.18-36.46-31.37-76.14-28.13-119,2.17-32.17,13-60.06,31.91-83.11,15.69-19.84,46-29.49,66.53-30C339.66,85.22,364,156,365.62,184.41c7,1.61,18.93,5.37,27,8.05-6.49-86.87-60.57-131.91-112.49-131.91-48.67,0-93.56,34.86-111.41,86.33-24.88,68.63-8.65,134.58,21.63,186.6C187.69,337.23,186.07,343.13,186.61,349Z" transform="translate(0 5.51)"/></svg>