<svg id="Layer_1" data-name="Layer 1" xmlns="http://www.w3.org/2000/svg" viewBox="0 0 560 562.03"><defs><style>.cls-1{fill:none;opacity:0;}.cls-2{fill:#333;}.cls-3{fill:#4faa41;fill-rule:evenodd;}</style></defs><rect class="cls-1" width="560" height="560"/><circle class="cls-2" cx="280" cy="287.54" r="274.49"/><path class="cls-3" d="M343.79,176.73a181.18,181.18,0,0,0-41.24-70.47c-4.85-5.13-10.23-9.83-13.61-16.21-2.13-4-4.17-8.14-6.25-12.2l-1.32-3.36L281,75.81c-.17,6.64-3.9,11.13-8.53,15.33-5.22,4.73-10.08,9.86-15.09,14.81L242,126.41l-12.47,23.12-8.34,22.71-.25.35c-4.58,15.21-6.85,30.84-8,46.62-.42,5.94.07,11.95.4,17.92a124,124,0,0,0,4.14,25.15c8,30,24.23,54.83,46.43,76,4.12,3.93,8.58,7.5,12.88,11.23l1.9,6.59,1.77,10.23.85,10.69c0,2.16-.1,4.34,0,6.5,0,.56.75,1.07,1.15,1.6l3.6,1.28,3.74,1.46-.64-9.49,0-9.35,1.29-14.25.94-3.1,2.68-4.8c3.32-2.68,6.87-5.13,9.89-8.12a228,228,0,0,0,15.79-16.82,126.41,126.41,0,0,0,16.18-25.08,191.44,191.44,0,0,0,8-18.45c2-5.54,3.26-11.37,4.84-17.07l.42-1.24a163,163,0,0,0,2.62-46.6A148.39,148.39,0,0,0,343.79,176.73ZM279,341.83c.5-2.53,1.12-5.05,1.58-7.59C280.12,336.78,279.51,339.3,279,341.83Zm11.13,1.75L288,338.93l2.11,4.65,3.09,2.66Zm130.72,58.87A26.23,26.23,0,0,0,409,390.72a33,33,0,0,0-13.9-3.26c-3.62-.11-7.25.08-10.88.13-3.22,0-6.44.09-9.66.06-3.79,0-7.58-.15-11.36-.26a1.23,1.23,0,0,0-1.37.75c-.46,1-1,2-1.56,3.07l.63.2c1.88.33,3.76.62,5.63,1,2.4.48,3.49,1.87,3.6,3.92.16,2.9.22,5.82.21,8.74,0,11.54-.13,23.08-.21,34.61a8.62,8.62,0,0,1-.23,2.28c-.23.82-.49,1.9-1.1,2.3a9.47,9.47,0,0,1-3.63,1.4c-1.83.3-2.13.38-2.7,2.2l-.25.9c-.27,1-.13,1.18.89,1.19,5.87.07,11.73.2,17.6.18,5.35,0,10.69.31,16-.71a37.71,37.71,0,0,0,14-5.46,28.24,28.24,0,0,0,11.69-15A37.53,37.53,0,0,0,424,413,29.57,29.57,0,0,0,420.85,402.45Zm-10.28,31.73c-3.14,5.89-7.82,9.83-14.51,10.86a23.23,23.23,0,0,1-12.38-1.14c-2.53-1-3.47-3.21-3.55-5.81s-.1-5.11-.11-7.66q0-13.47,0-26.94c0-2.82.06-5.66.1-8.49,0-2,.45-2.65,2.37-2.82,8.45-.71,16.52.21,23.22,6.21a23.66,23.66,0,0,1,7.47,13.88c.41,2.26.53,4.58.79,6.88C413.76,424.4,413.06,429.5,410.57,434.18Zm70.93-9.72c-1.66-4.1-4.82-6.66-8.79-8.3-1.35-.56-2.75-1-4.21-1.57l.51-.33a33.8,33.8,0,0,0,4.7-3.1,12.47,12.47,0,0,0,4-11.48,12.2,12.2,0,0,0-6.6-9.6A23,23,0,0,0,460,387.53c-6.73,0-13.46.11-20.18.12-2.32,0-4.64-.17-7-.2a1.75,1.75,0,0,0-1.31.41,16.83,16.83,0,0,0-1.26,2.68c-.21.53,0,.82.6.9,1.62.23,3.24.5,4.86.75a3.61,3.61,0,0,1,3.46,3.79l0,1.35c0,7.07,0,14.15,0,21.23s-.11,14.13-.2,21.2a21.91,21.91,0,0,1-.25,2.67,2.75,2.75,0,0,1-2.26,2.54l-3.83.76c-.45.09-1.1.08-1.29.36a5.87,5.87,0,0,0-1.19,3.62l.39.11,12.87.32h2.58c4.46-.05,8.92,0,13.36-.2A29.07,29.07,0,0,0,473,445.77c4.45-2.64,7.88-6.13,9.09-11.37a16,16,0,0,0-.54-9.94Zm-32.69-30.15c0-1.43.64-2,2-2.08,3.45-.1,6.87-.08,10.2,1.12a10.12,10.12,0,0,1,6.9,9.87,14.73,14.73,0,0,1-.64,5.19,8,8,0,0,1-7.14,5.42c-1.79.18-3.61.2-5.21.28l-5.34-.23c-.71,0-1-.34-1-1.08l.21-18.49ZM471,438.62a11.18,11.18,0,0,1-8.79,6.46,22,22,0,0,1-9.42-.42c-2.3-.59-3.24-2.46-3.69-4.52a23.66,23.66,0,0,1-.29-4.47c0-2.22,0-6.83,0-6.83h0c0-3.28,0-6.12,0-9.27,0-.68.11-1,.93-1,2.92.09,5.86.14,8.78.26A16.7,16.7,0,0,1,465.8,421a11.45,11.45,0,0,1,6.19,8.83,15.58,15.58,0,0,1-1,8.83Zm-321,3.54.06-17.85a23.88,23.88,0,0,0-1.2-7.87c-2.41-7-9-10.22-15.95-7.7a35.26,35.26,0,0,0-8.65,4.86c-1.56,1.15-1.56,1.15-2.7-.49-3.2-4.64-7.78-6.23-13.12-4.52a30.88,30.88,0,0,0-9.31,5.19c-.27.2-.81.43-1,.31a1.39,1.39,0,0,1-.44-1l.19-3.17a18.12,18.12,0,0,0-.17-2c-1.29.45-2.32.9-3.4,1.16-3.33.82-6.68,1.57-10,2.35-.81.18-1.67.43-1.75,1.37s.8,1.08,1.49,1.35c1.43.59,2.86,1.21,4.29,1.84A2.71,2.71,0,0,1,90,418.71c0,5.53,0,11.06,0,16.59,0,2.25-.12,4.5-.22,6.75-.09,2-.76,2.82-2.68,3.33-1,.26-2,.45-3.07.69-.22.05-.6.2-.61.31a14.23,14.23,0,0,0,.07,2.92c0,.17,1.06.17,1.62.24l.38,0q5.92-.09,11.84-.16c2.1,0,4.19,0,6.46,0l.24-3.19c-1.3-.24-2.46-.42-3.61-.67a2.9,2.9,0,0,1-2.59-3.17l0-2.61c0-6.75,0-13.5,0-20.26A2.69,2.69,0,0,1,99,417.1a18.8,18.8,0,0,1,5.85-2.76c4.46-1.15,8.34.45,10.06,4.28a12.51,12.51,0,0,1,1.09,3.86,136.46,136.46,0,0,1,0,20.32,2.5,2.5,0,0,1-2.19,2.56l-3.36.71c-.27.07-.66-.11-.68.11-.08.94,0,2.37,0,2.37h.8l10.23.34c2.8,0,5.61.34,8.41.41.5,0,.94.09,1-.5.05-.93,0-1.8,0-2.72l-.54-.1-2.88-.65c-1.94-.46-2.61-1.21-2.62-3.19,0-4.89,0-9.78,0-14.67,0-2.79-.13-5.59-.31-8.37a1.61,1.61,0,0,1,.65-1.65,17.18,17.18,0,0,1,5.64-2.74c6.3-1.68,11.46,1.81,11.78,8.36.32,6.32.19,12.66.14,19,0,2.21-.74,2.87-2.89,3.46l-.74.2c-2.21.53-2.19.53-2.06,2.89,0,.74.25.93,1,.91,4.49-.1,9-.13,13.47-.17,1.83,0,3.67,0,5.67,0l.4-3.07c-1.75-.47-3.37-.82-4.93-1.33a2.52,2.52,0,0,1-1.86-2.79Zm154.6-27.06c1.84-1.73,1.86-4,1.34-6.56a7.3,7.3,0,0,1-5,2.4,15.35,15.35,0,0,1-7.31-1.05,21.47,21.47,0,0,0-18.75.46c-5.22,2.52-8.43,6.45-8.75,12.41-.21,3.82.5,7.44,3,10.47a13,13,0,0,0,5.65,3.82c.94.35,1,.8.22,1.41-.58.45-1.19.86-1.81,1.25-1.32.83-2.65,1.66-4,2.47a1.61,1.61,0,0,0-.8,2c.76,2.75,2.69,4.34,5.11,5.5l.89.62-.77.78c-2.38,1.94-4.85,3.77-7.12,5.83a6.52,6.52,0,0,0-1.94,6.61,12.68,12.68,0,0,0,9.28,9.72c8.32,2.54,16.14,1.08,23.26-3.89,4.23-3,7.26-6.8,8.18-12.09,1-5.94-2.24-11.09-8.1-12.16-3.87-.71-7.83-.91-11.75-1.36A47.35,47.35,0,0,1,280,443a2.61,2.61,0,0,1-2.13-2.82,3.1,3.1,0,0,1,2.85-2.43,24.42,24.42,0,0,0,8.42-1.92c7.09-3.28,10.38-9,9.56-16.71-.11-1-.34-2.07-.55-3.27C300.46,416.24,302.78,416.82,304.62,415.1ZM283.1,451.28a36.34,36.34,0,0,1,9.34,1.2c2.79.82,5.08,2.26,5.76,5.4a8.8,8.8,0,0,1-4.64,9.6c-3.41,1.9-7.11,2.06-10.87,1.67a13.17,13.17,0,0,1-8.43-3.86,7.36,7.36,0,0,1,0-10.67C277,451.81,278.44,451.23,283.1,451.28Zm7.22-22.87c-1.68,5.43-6.57,6.17-10.4,4.44-3.27-1.47-4.69-4.38-5.44-7.69a39.26,39.26,0,0,1-.52-3.9,13.27,13.27,0,0,1,1.17-5.35c2.44-5.17,8.45-4.87,11.77-2.52a8.41,8.41,0,0,1,3,4A16.57,16.57,0,0,1,290.32,428.41ZM259.81,445.7a25.88,25.88,0,0,1-3.44-.78c-2-.61-2.22-1-2.24-3.09-.06-5.89-.1-11.77-.16-17.66a27,27,0,0,0-1.15-7.78c-2.12-6.67-8.6-10.25-15.09-8.28a27.55,27.55,0,0,0-9.55,5.51l-1.05.81v-1.08c.06-1.25.2-2.51.19-3.76a9.93,9.93,0,0,0-.38-1.88c-2.45.74-4.65,1.49-6.89,2.06s-4.54,1-6.82,1.43c-1.13.23-2,.92-1.94,1.7,0,1.11.94,1.32,1.73,1.65,1.44.6,2.88,1.2,4.3,1.84a2.36,2.36,0,0,1,1.42,2.4c-.07,7.65-.12,15.3-.23,22.95,0,2.42-.64,3.06-3,3.59l-1,.21c-2.18.37-2.25.46-2.1,2.78l0,.39c0,.89.36,1.18,1.27,1.17q8.69-.11,17.39-.08c2.48,0,2.75-.18,2.7-2.76l-.12-1.11c-1.42-.24-2.78-.41-4.11-.71a2.17,2.17,0,0,1-2-2.31c-.12-1.3-.16-2.62-.18-3.94q-.09-9-.14-18a4.29,4.29,0,0,1,1.65-3.9,13.37,13.37,0,0,1,6.91-2.5c5.17-.36,9.1,2.73,9.38,7.93.35,6.41.24,12.85.33,19.28a10,10,0,0,1-.15,1.44,2,2,0,0,1-1.52,1.88,26.87,26.87,0,0,1-2.8.61c-1.4.21-1.43.2-1.54,1.63l0,1c.16,1.66.17,1.61,1.84,1.59,5.6,0,11.2-.07,16.81-.06,2.34,0,2.51-.11,2.53-2.55v-.57C260.73,446.05,260.45,445.8,259.81,445.7Zm78.3-37.19c-5.87-1.45-11.44-.37-16.74,2.39a18.34,18.34,0,0,0-9.89,12.56,25.32,25.32,0,0,0,1.85,16.82,16.64,16.64,0,0,0,7.64,7.94c8.1,4.11,18,2.25,24.35-3.25,5-4.34,6.85-10.12,7-17.27-.07-.72-.14-2.09-.33-3.46A18.43,18.43,0,0,0,338.11,408.51Zm4.46,30.07c-1.56,6.19-6.87,8.94-12.86,6.82a12.47,12.47,0,0,1-6.88-6,26,26,0,0,1-2.21-20.3,9.09,9.09,0,0,1,9.7-6.92,12.11,12.11,0,0,1,9.46,5.58,22.42,22.42,0,0,1,3.59,11.71c0,.67,0,1.35,0,2l.29,0C343.31,433.91,343.14,436.3,342.57,438.58ZM190.33,408.41c-6.19-1.42-12,0-17.34,3.15a18.08,18.08,0,0,0-8.79,12.18,25.93,25.93,0,0,0,1.12,14.69,17.2,17.2,0,0,0,5.06,7.48c5,4.21,10.83,5.27,17.05,4.1a20.85,20.85,0,0,0,13.24-7.76c3.15-4.13,4.34-8.86,4.47-14a48.84,48.84,0,0,0-.58-4.86C202.87,415.47,198.28,410.24,190.33,408.41Zm5,30.15c-1.51,6.16-6.9,9-12.85,6.85a13.5,13.5,0,0,1-7.88-7.8,26.86,26.86,0,0,1-1.4-18c1.25-4.68,5-8.14,10.78-7.31a12.06,12.06,0,0,1,8.36,5.23c2.78,3.91,3.69,8.39,3.82,13.1v1l.23,0C196.09,434,195.92,436.3,195.37,438.56Z" transform="translate(0 5.51)"/></svg>